# xmcd
#
# Track frame offsets:
#	150
#	10349
#	23804
#	39383
#	54764
#	70882
#	88892
#	105470
#	119480
#	135376
#	151556
#	166931
#	184261
#	198856
#	214253
#	228077
#	243934
#	260549
#	276179
#	289446
#	311181
#	325257
#	339776
#
# Disc length: 4727 seconds
#
# Revision: 1
# Processed by: cddbd v1.5.2PL0 Copyright (c) Steve Scherf et al.
# Submitted via: audiograbber 1.83.01
#
DISCID=3d127517
DTITLE=Glenn Erickson - Diamondback Records Compilation 018
DYEAR=2016
DGENRE=Country
TTITLE0=It´s To Early To Cry In My Beer -Allen Karl
TTITLE1=Don´t Take Your Guns To Town -B. Jeff Stone
TTITLE2=Made In Texas -Donna Cunningham
TTITLE3=The Train Of Life -Dave Parks
TTITLE4=Refelctions Of A Fool Shavonne
TTITLE5=Half Of Doublewide -William ray
TTITLE6=If that´s The Way You Want It -Allen karl and Donna Cunningham
TTITLE7=Hard To Find A Withness -David Starr
TTITLE8=Kangaroo Rodeo -The Long and Short
TTITLE9=Down Home -Terry Gorka
TTITLE10=I´m Not Lisa -Julie Richardsonm
TTITLE11=Bring Home The Wateer -Pecos Red
TTITLE12=You´ve Come A Long Way From Dixie -Phillip Clarkson
TTITLE13=Sweet EMily -John Dickie IV
TTITLE14=Tennessee Waltz -Gail Russell
TTITLE15=Hey Girl -Ray Roldan
TTITLE16=Manson Dixon Line -Glenn Erickson
TTITLE17=Where Am I Gonna Live -Peter Frew
TTITLE18=You, Hank And Hope -Donna Ray
TTITLE19=The Bed By The Window -Peter Trenholm
TTITLE20=Old broken heart -Juli Maners
TTITLE21=Train To Nowhere -Loman Craig
TTITLE22=IK´ll Soon get over You -Glenn Erickson
EXTD=
EXTT0=
EXTT1=
EXTT2=
EXTT3=
EXTT4=
EXTT5=
EXTT6=
EXTT7=
EXTT8=
EXTT9=
EXTT10=
EXTT11=
EXTT12=
EXTT13=
EXTT14=
EXTT15=
EXTT16=
EXTT17=
EXTT18=
EXTT19=
EXTT20=
EXTT21=
EXTT22=
PLAYORDER=
